<svg xmlns="http://www.w3.org/2000/svg" viewBox="0 0 800 600">
  <!-- Vegetables Group -->
  <g>
    <!-- Tomatoes -->
    <circle cx="600" cy="300" r="50" fill="#e74c3c"/>
    <circle cx="650" cy="350" r="40" fill="#e74c3c"/>
    <circle cx="680" cy="280" r="45" fill="#e74c3c"/>
    <circle cx="720" cy="320" r="35" fill="#e74c3c"/>
    
    <!-- Eggplant -->
    <path d="M500 250 C520 260, 540 350, 520 400 C500 450, 450 460, 430 400 C410 350, 430 260, 450 250 Z" fill="#5d3fd3"/>
    
    <!-- Lettuce/Cabbage -->
    <path d="M350 200 C400 180, 450 200, 470 250 C490 300, 470 350, 420 370 C370 390, 320 370, 300 320 C280 270, 300 220, 350 200 Z" fill="#2ecc71"/>
    
    <!-- Cucumber -->
    <path d="M250 300 C270 280, 320 290, 350 320 C380 350, 390 400, 370 420 C350 440, 300 430, 270 400 C240 370, 230 320, 250 300 Z" fill="#27ae60"/>
    
    <!-- Bowl outline suggestion -->
    <ellipse cx="500" cy="400" rx="300" ry="50" fill="none" stroke="#e67e22" stroke-width="2"/>
  </g>
</svg>